<svg xmlns="http://www.w3.org/2000/svg" viewBox="0 0 512 512" role="img" aria-labelledby="title desc">
  <title id="title">Foundry test 07 blue teal slab</title>
  <desc id="desc">Dark frame mark with a deep blue slab and teal active signal.</desc>
  <rect width="512" height="512" rx="112" fill="#1e1d1a"/>
  <rect x="112" y="112" width="288" height="288" rx="58" fill="#2457d6"/>
  <path d="M136 118h240c10 0 18 8 18 18v240c0 10-8 18-18 18H136c-10 0-18-8-18-18V136c0-10 8-18 18-18Z" fill="none" stroke="#f6f5f2" stroke-width="18"/>
  <path d="M178 158h176v54H236v62h97v48h-97v96h-58V158Z" fill="#f6f5f2"/>
  <path d="M349 137l31 31-31 31-31-31 31-31Z" fill="#0f9f8f"/>
  <path d="M368 232v88c0 28-22 50-50 50h-82" fill="none" stroke="#0f9f8f" stroke-width="17" stroke-linecap="round"/>
</svg>
