<svg xmlns="http://www.w3.org/2000/svg" viewBox="0 0 512 512" role="img" aria-labelledby="title desc">
  <title id="title">Foundry test 04 light green rail</title>
  <desc id="desc">Dark frame mark with a light green active rail.</desc>
  <rect width="512" height="512" rx="112" fill="#1e1d1a"/>
  <path d="M136 118h240c10 0 18 8 18 18v240c0 10-8 18-18 18H136c-10 0-18-8-18-18V136c0-10 8-18 18-18Z" fill="none" stroke="#f6f5f2" stroke-width="22"/>
  <path d="M182 166h166v48H234v56h94v48h-94v96h-52V166Z" fill="#f6f5f2"/>
  <path d="M344 142l32 32-32 32-32-32 32-32Z" fill="#8fdc7a"/>
  <path d="M368 232v94c0 23-19 42-42 42h-92" fill="none" stroke="#8fdc7a" stroke-width="18" stroke-linecap="round" opacity="0.95"/>
</svg>
