<svg xmlns="http://www.w3.org/2000/svg" viewBox="0 0 900 260" role="img" aria-labelledby="title desc">
  <title id="title">Foundry by SignalOS wordmark</title>
  <desc id="desc">Horizontal Foundry wordmark with approved mark and by SignalOS endorsement.</desc>
  <rect width="900" height="260" rx="28" fill="#f6f5f2"/>
  <g transform="translate(48 46) scale(0.328125)">
    <rect width="512" height="512" rx="112" fill="#1e1d1a"/>
    <path d="M116 194v-56c0-13 10-23 23-23h57M316 115h57c13 0 23 10 23 23v57M396 316v57c0 13-10 23-23 23h-57M196 396h-57c-13 0-23-10-23-23v-57" fill="none" stroke="#f6f5f2" stroke-width="23" stroke-linecap="round"/>
    <rect x="143" y="145" width="226" height="226" rx="44" fill="#f6f5f2"/>
    <path d="M181 184h152v47h-99v51h82v42h-82v84h-53V184Z" fill="#1e1d1a"/>
    <path d="M331 121h43c12 0 22 10 22 22v43" fill="none" stroke="#d97845" stroke-width="19" stroke-linecap="round"/>
    <path d="M351 225v82c0 26-21 47-47 47h-70" fill="none" stroke="#d97845" stroke-width="15" stroke-linecap="round"/>
    <path d="M351 219l25 25-25 25-25-25 25-25Z" fill="#d97845"/>
  </g>
  <text x="256" y="122" fill="#1e1d1a" font-family="Inter, Avenir Next, Segoe UI, Arial, sans-serif" font-size="66" font-weight="760" letter-spacing="0">Foundry</text>
  <text x="260" y="169" fill="#2457d6" font-family="Inter, Avenir Next, Segoe UI, Arial, sans-serif" font-size="18" font-weight="760" letter-spacing="4.8">BY SIGNALOS</text>
  <path d="M260 192h358" stroke="#d97845" stroke-width="5" stroke-linecap="round"/>
</svg>
