<svg xmlns="http://www.w3.org/2000/svg" viewBox="0 0 512 512" role="img" aria-labelledby="title desc">
  <title id="title">Foundry concept B mark</title>
  <desc id="desc">A forged spark protected by a precise blue frame.</desc>
  <rect width="512" height="512" rx="112" fill="#2457d6"/>
  <path d="M154 98h204c31 0 56 25 56 56v204c0 31-25 56-56 56H154c-31 0-56-25-56-56V154c0-31 25-56 56-56Z" fill="none" stroke="#f6f5f2" stroke-width="26"/>
  <path d="M256 112c16 45 42 77 78 96-39 4-70-5-94-26 12 50 47 83 105 99-61 27-116 12-166-45 12 61 54 105 127 132-63 20-120 10-169-29-45-36-62-83-49-141 10 18 24 34 43 48-7-54 35-100 125-134Z" fill="#f6f5f2"/>
  <path d="M257 182c13 34 33 59 61 75-31 0-56-8-76-25 8 35 31 59 70 73-34 16-68 10-101-18 11 35 35 60 74 75-44 12-82 2-115-30-27-27-38-60-28-99 12 19 28 32 47 40-6-39 17-69 68-91Z" fill="#a86310"/>
</svg>
