<svg xmlns="http://www.w3.org/2000/svg" viewBox="0 0 512 512" role="img" aria-labelledby="title desc">
  <title id="title">Foundry concept C mark</title>
  <desc id="desc">A minimal governed frame with a sharp active spark.</desc>
  <rect width="512" height="512" rx="112" fill="#f6f5f2"/>
  <path d="M144 112h224c18 0 32 14 32 32v224c0 18-14 32-32 32H144c-18 0-32-14-32-32V144c0-18 14-32 32-32Z" fill="none" stroke="#2457d6" stroke-width="28"/>
  <path d="M154 256h64M294 256h64M256 154v64M256 294v64" stroke="#2457d6" stroke-width="24" stroke-linecap="round"/>
  <path d="M256 189l25 55 57 12-44 39 7 58-45-30-45 30 7-58-44-39 57-12 25-55Z" fill="#a86310"/>
  <circle cx="256" cy="256" r="35" fill="#f6f5f2"/>
  <circle cx="256" cy="256" r="17" fill="#2457d6"/>
</svg>
